<svg id="Layer_1" data-name="Layer 1" xmlns="http://www.w3.org/2000/svg" viewBox="0 0 1024 512"><defs><style>.cls-1{fill:#494e55;}.cls-2{fill:#57c6d6;}</style></defs><title>Artboard 16</title><path class="cls-1" d="M624,339.5v-137H600v-26h75v26H651v137Z"/><path class="cls-1" d="M747.57,338.5,740,294.84c-1.79-10.36-4.24-17.34-14.06-17.34H719v61H691v-162h49.58c21.63,0,30.42,14.59,30.42,31.41v28.18c0,11-3.12,24.76-17.41,28.58,8.71,2,11.39,13.73,13.84,28.59l7.36,45.24ZM743,211.77c0-5.65-1.35-9.27-9.68-9.27H718v50h10.36c9.91,0,14.64-4.07,14.64-17Z"/><path class="cls-1" d="M866.55,206.85l12,132.65H851.81l-3.62-39h-29l-3.62,39H788.78l12-132.65c1.14-13.38,4.31-34.47,32.88-34.47S865.42,193.47,866.55,206.85Zm-26.12,7.83c-.9-10.36-2-14.42-6.76-14.42s-5.86,4.06-6.75,14.42l-5.41,60.82h24.33Z"/><path class="cls-1" d="M948,338.5l-4.42-41.86c-1.11-10.58-3.54-19.14-17.93-19.14H923v61H896v-162h27v76h2.66c15.27,0,18.59-10.37,19-19.17l3.54-56.83H976L972.6,236c-.68,11.45-4.49,24.46-17.5,29,11.89,4.26,15,17.5,16.15,28.94l4.49,44.65Z"/><path class="cls-2" d="M367,337.5v-163h15v163Z"/><path class="cls-2" d="M468,337.5v-121c0-19.37-7.59-30.19-23-30.19s-23,10.82-23,30.19v121H406V214.73c0-27,12.61-43.25,38.5-43.25S483,187.7,483,214.73V337.5Z"/><path class="cls-2" d="M584,298.5c0,25.75-12.61,41.89-38.5,41.89s-38.5-16.14-38.5-43V215c0-26.88,12.61-43,38.5-43S584,188.08,584,215V227.5H569V216.75c0-19.26-7.72-30-23.62-30-15.67,0-23.38,10.76-23.38,30v78.83c0,19.27,7.71,30,23.38,30,15.9,0,23.62-10.75,23.62-27.1Z"/><path class="cls-2" d="M326.78,241,200.55,114.72a21.29,21.29,0,0,0-30.1,0L44.22,241a21.32,21.32,0,0,0,0,30.1L170.45,397.28a21.29,21.29,0,0,0,30.1,0L326.78,271.05h0A21.32,21.32,0,0,0,326.78,241ZM124.22,178.5H140.9a4.31,4.31,0,0,1,2,1.76,2.27,2.27,0,0,1-2,3.24H124.2a2.2,2.2,0,0,1-2-1.27A2.84,2.84,0,0,1,124.22,178.5ZM105,200.5h55a2.18,2.18,0,0,1,2.11,1.5,2.92,2.92,0,0,1-2,3.5h-55a3.85,3.85,0,0,1-2.12-2A2.23,2.23,0,0,1,105,200.5Zm-18.88,21h92.75A2.19,2.19,0,0,1,181,223a2.91,2.91,0,0,1-2,3.49H86.22a3.85,3.85,0,0,1-2.12-2A2.24,2.24,0,0,1,86.13,221.5Zm-19.3,21H198.59a3.82,3.82,0,0,1,2.12,2,2.25,2.25,0,0,1-2,3H66.92A2.21,2.21,0,0,1,64.8,246,2.92,2.92,0,0,1,66.83,242.5Zm.27,22H198.41a2.21,2.21,0,0,1,2.12,1.51,2.92,2.92,0,0,1-2,3.49H67A2.92,2.92,0,0,1,65,266,2.21,2.21,0,0,1,67.1,264.5Zm19.1,21h92.7a3.85,3.85,0,0,1,2.12,2,2.23,2.23,0,0,1-2,3H86.1a2.24,2.24,0,0,1-2-3A3.85,3.85,0,0,1,86.2,285.5Zm19.47,21h53.77a3.88,3.88,0,0,1,2.12,2,2.24,2.24,0,0,1-2,3h-54a2.23,2.23,0,0,1-2-3A3.85,3.85,0,0,1,105.67,306.5Zm36.49,27H123.33a4.31,4.31,0,0,1-2-1.76,2.27,2.27,0,0,1,2-3.24h18.84a2.19,2.19,0,0,1,2,1.27A2.84,2.84,0,0,1,142.16,333.5Zm171.9-75.16L187.84,384.56a3.3,3.3,0,0,1-4.68,0l-39.78-39.78.2-.17L221.15,267a15.6,15.6,0,0,0,0-22.06l-77.57-77.58-.2-.17,39.78-39.78a3.31,3.31,0,0,1,4.68,0L314.06,253.66A3.31,3.31,0,0,1,314.06,258.34Z"/></svg>