<?xml version="1.0" ?><!DOCTYPE svg  PUBLIC '-//W3C//DTD SVG 1.1//EN'  'http://www.w3.org/Graphics/SVG/1.1/DTD/svg11.dtd'><svg height="256px" style="enable-background:new 0 0 256 256;" version="1.1" viewBox="0 0 256 256" width="256px" xml:space="preserve" xmlns="http://www.w3.org/2000/svg" xmlns:xlink="http://www.w3.org/1999/xlink"><g id="Layer_125"><g><g><path d="M256,136h-8L88,112c-15.465,0-28-12.535-28-28s12.535-28,28-28l160-24h8" style="fill:#F59D15;"/><g><path d="M36,256v-48c0-40-32-73.609-32-120S41.609,4,88,4s84,37.609,84,84l20,52v8h-20v36      c0,13.254-10.746,24-24,24h-24v48" style="fill:#FFFFFF;"/><g><line style="fill:none;stroke:#5F6465;stroke-width:8;stroke-miterlimit:10;" x1="124" x2="112" y1="208" y2="208"/></g><path d="M192,148h-20v36      c0,13.254-10.746,24-24,24h-24v48" style="fill:none;stroke:#5F6465;stroke-width:8;stroke-linejoin:round;stroke-miterlimit:10;"/><path d="M36,256v-48      c0-40-32-73.609-32-120S41.609,4,88,4c22.891,0,43.641,9.156,58.793,24.004" style="fill:none;stroke:#5F6465;stroke-width:8;stroke-linejoin:round;stroke-miterlimit:10;"/></g><path d="M135.68,84c0-6.18,4.719-11.203,10.738-11.801c-1.543-7.691-4.578-14.84-8.777-21.152     c-4.68,3.82-11.563,3.605-15.93-0.758c-4.363-4.367-4.578-11.25-0.758-15.93c-6.313-4.199-13.461-7.234-21.152-8.777     C99.203,31.602,94.18,36.32,88,36.32s-11.203-4.719-11.801-10.738c-7.691,1.543-14.84,4.578-21.152,8.777     c3.82,4.68,3.605,11.563-0.758,15.93c-4.367,4.363-11.25,4.578-15.93,0.758c-4.199,6.313-7.234,13.461-8.777,21.152     C35.602,72.797,40.32,77.82,40.32,84s-4.719,11.203-10.738,11.801c1.543,7.691,4.578,14.84,8.777,21.152     c4.68-3.82,11.563-3.605,15.93,0.758c4.363,4.367,4.578,11.25,0.758,15.93c6.313,4.199,13.461,7.234,21.152,8.777     c0.598-6.02,5.621-10.738,11.801-10.738s11.203,4.719,11.801,10.738c7.691-1.543,14.84-4.578,21.152-8.777     c-3.82-4.68-3.605-11.563,0.758-15.93c4.367-4.363,11.25-4.578,15.93-0.758c4.199-6.313,7.234-13.461,8.777-21.152     C140.398,95.203,135.68,90.18,135.68,84z" style="fill:#76E1E5;"/><path d="M100,84c0,6.629-5.367,12-12,12s-12-5.371-12-12s5.367-12,12-12S100,77.371,100,84z" style="fill:#FFFFFF;"/><path d="M256,136h-8L88,112     c-15.465,0-28-12.535-28-28s12.535-28,28-28l160-24h8" style="fill:none;stroke:#5F6465;stroke-width:8;stroke-linejoin:round;stroke-miterlimit:10;"/><line style="fill:none;stroke:#5F6465;stroke-width:8;stroke-linejoin:round;stroke-miterlimit:10;" x1="84" x2="92" y1="84" y2="84"/><g><line style="fill:none;stroke:#5F6465;stroke-width:8;stroke-linejoin:round;stroke-miterlimit:10;" x1="200" x2="208" y1="84" y2="84"/><line style="fill:none;stroke:#5F6465;stroke-width:8;stroke-linejoin:round;stroke-miterlimit:10;" x1="216" x2="224" y1="84" y2="84"/><line style="fill:none;stroke:#5F6465;stroke-width:8;stroke-linejoin:round;stroke-miterlimit:10;" x1="232" x2="240" y1="84" y2="84"/></g></g></g></g><g id="Layer_1"/></svg>