<?xml version="1.0" ?><!DOCTYPE svg  PUBLIC '-//W3C//DTD SVG 1.1//EN'  'http://www.w3.org/Graphics/SVG/1.1/DTD/svg11.dtd'><svg height="322.203px" style="enable-background:new 0 0 323.167 322.203;" version="1.1" viewBox="0 0 323.167 322.203" width="323.167px" xml:space="preserve" xmlns="http://www.w3.org/2000/svg" xmlns:xlink="http://www.w3.org/1999/xlink"><g id="Layer_33"><g><rect height="51.949" style="fill:#64CDF2;" width="125" x="132.667" y="105.801"/><rect height="14.82" style="fill:#ED4F3E;" width="125" y="176.631"/><rect height="191.988" style="fill:#D3DBDD;" width="16.609" x="306.558" y="128"/><rect height="48" style="fill:#ED4F3E;" width="16.609" x="306.558" y="128"/><rect height="112" style="fill:#D3DBDD;" width="16" x="275.167" y="208"/><rect height="168.328" style="fill:#ED4F3E;" width="16" x="275.167" y="55.666"/><path d="M217.667,107.25C217.667,48.018,169.649,0,110.417,0S3.167,48.018,3.167,107.25    S51.185,214.5,110.417,214.5c26.343,0,50.462-9.503,69.131-25.261l21.8,21.8l12.113-12.113l-21.737-21.737    C207.892,158.41,217.667,133.973,217.667,107.25z M21.769,107.25c0-48.959,39.689-88.647,88.648-88.647    s88.647,39.688,88.647,88.647s-39.688,88.647-88.647,88.647S21.769,156.209,21.769,107.25z" style="fill:#BAC4C6;"/><rect height="22.529" style="fill:#ED4F3E;" transform="matrix(0.7071 0.7071 -0.7071 0.7071 258.7401 -108.6381)" width="152.778" x="184.119" y="246.743"/><g><polyline points="59.167,135.501      108.167,80.001 179.167,80 243.167,26.502 314.667,19.963    " style="fill:none;stroke:#30241C;stroke-width:4;stroke-linejoin:round;stroke-miterlimit:10;"/><circle cx="59.167" cy="135.501" r="7.5" style="fill:#64CDF2;"/><circle cx="179.167" cy="80" r="7.5" style="fill:#64CDF2;"/><circle cx="314.667" cy="19.963" r="7.5" style="fill:#64CDF2;"/><circle cx="108.167" cy="80.001" r="12" style="fill:#3AB1CC;"/><circle cx="243.167" cy="26.502" r="12" style="fill:#3AB1CC;"/></g><rect height="16" style="fill:#ED4F3E;" width="16" x="3.167" y="304"/><rect height="16" style="fill:#3AB1CC;" width="16" x="3.167" y="271.965"/><rect height="16" style="fill:#64CDF2;" width="16" x="3.167" y="240"/><line style="fill:none;stroke:#30241C;stroke-width:4;stroke-linejoin:round;stroke-miterlimit:10;" x1="35.167" x2="163.667" y1="240" y2="240"/><line style="fill:none;stroke:#30241C;stroke-width:4;stroke-linejoin:round;stroke-miterlimit:10;" x1="35.167" x2="115.167" y1="256" y2="256"/><line style="fill:none;stroke:#30241C;stroke-width:4;stroke-linejoin:round;stroke-miterlimit:10;" x1="35.167" x2="163.667" y1="271.965" y2="271.965"/><line style="fill:none;stroke:#30241C;stroke-width:4;stroke-linejoin:round;stroke-miterlimit:10;" x1="35.167" x2="115.167" y1="287.965" y2="287.965"/><line style="fill:none;stroke:#30241C;stroke-width:4;stroke-linejoin:round;stroke-miterlimit:10;" x1="35.167" x2="163.667" y1="304.203" y2="304.203"/><line style="fill:none;stroke:#30241C;stroke-width:4;stroke-linejoin:round;stroke-miterlimit:10;" x1="35.167" x2="115.167" y1="320.203" y2="320.203"/><rect height="8" style="fill:#D3DBDD;" width="16" x="179.167" y="312.203"/><rect height="14.512" style="fill:#D3DBDD;" width="16" x="211.167" y="305.691"/><rect height="37.06" style="fill:#D3DBDD;" width="16" x="243.167" y="283.144"/></g></g><g id="Layer_1"/></svg>