<?xml version="1.0" ?><svg id="Layer_1_1_" style="enable-background:new 0 0 64 64;" version="1.1" viewBox="0 0 64 64" xml:space="preserve" xmlns="http://www.w3.org/2000/svg" xmlns:xlink="http://www.w3.org/1999/xlink"><path d="M32,31.697C34.903,27.647,39.638,25,45,25c0.964,0,1.904,0.1,2.822,0.264  C47.927,24.522,48,23.771,48,23c0-8.837-7.163-16-16-16s-16,7.163-16,16c0,0.771,0.073,1.522,0.178,2.264  C17.096,25.1,18.036,25,19,25C24.362,25,29.097,27.647,32,31.697z" style="fill:#E3E9FF;"/><path d="M29.178,38.736c-6.755-1.204-12.03-6.639-13-13.473C8.69,26.598,3,33.128,3,41  c0,8.837,7.163,16,16,16c5.362,0,10.097-2.647,13-6.697c-1.881-2.623-3-5.829-3-9.303C29,40.229,29.073,39.478,29.178,38.736z" style="fill:#ABBCFF;"/><path d="M29.178,38.736c0.369-2.602,1.358-4.998,2.822-7.04C29.097,27.647,24.362,25,19,25  c-0.964,0-1.904,0.1-2.822,0.264C17.149,32.097,22.423,37.532,29.178,38.736z" style="fill:#3C4B87;"/><path d="M47.822,25.264c-0.97,6.833-6.245,12.269-13,13.473C34.927,39.478,35,40.229,35,41  c0,3.474-1.119,6.68-3,9.303C34.903,54.353,39.638,57,45,57c8.837,0,16-7.163,16-16C61,33.128,55.31,26.598,47.822,25.264z" style="fill:#8BA0F0;"/><path d="M32,31.697c1.464,2.041,2.452,4.438,2.822,7.04c6.755-1.204,12.03-6.639,13-13.473  C46.904,25.1,45.964,25,45,25C39.638,25,34.903,27.647,32,31.697z" style="fill:#5A70C7;"/><path d="M34.822,38.736C33.904,38.9,32.964,39,32,39s-1.904-0.1-2.822-0.264C29.073,39.478,29,40.229,29,41  c0,3.474,1.119,6.68,3,9.303c1.881-2.623,3-5.829,3-9.303C35,40.229,34.927,39.478,34.822,38.736z" style="fill:#5266B8;"/><path d="M29.178,38.736C30.096,38.9,31.036,39,32,39s1.904-0.1,2.822-0.264  c-0.369-2.602-1.358-4.998-2.822-7.04C30.536,33.738,29.548,36.135,29.178,38.736z" style="fill:#1B223D;"/><g><text transform="matrix(1 0 0 1 -182.3999 -309)"><tspan style="font-family:'Montserrat-Regular'; font-size:10px;" x="0" y="0"/><tspan style="font-family:'Montserrat-Regular'; font-size:10px;" x="6.16" y="0"/><tspan style="font-family:'Montserrat-Regular'; font-size:10px;" x="13.11" y="0"/><tspan style="font-family:'Montserrat-Regular'; font-size:10px;" x="19.7" y="0"/><tspan style="font-family:'Montserrat-Regular'; font-size:10px;" x="9.585" y="12"/><tspan style="font-family:'Montserrat-Regular'; font-size:10px;" x="21.535" y="12"/><tspan style="font-family:'Montserrat-Regular'; font-size:10px;" x="29.545" y="12"/></text><text transform="matrix(1 0 0 1 -92.6147 -309)"><tspan style="font-family:'Montserrat-Regular'; font-size:10px;" x="0" y="0"/><tspan style="font-family:'Montserrat-Regular'; font-size:10px;" x="-1.04" y="12"/></text><text transform="matrix(1 0 0 1 -74.8047 -213)"><tspan style="font-family:'Montserrat-Regular'; font-size:10px;" x="0" y="0"/><tspan style="font-family:'Montserrat-Regular'; font-size:10px;" x="-10.595" y="12"/></text><text transform="matrix(1 0 0 1 23.8999 -309)"><tspan style="font-family:'Montserrat-Regular'; font-size:10px;" x="0" y="0"/><tspan style="font-family:'Montserrat-Regular'; font-size:10px;" x="-9.44" y="12"/></text><text transform="matrix(1 0 0 1 104.665 -309)"><tspan style="font-family:'Montserrat-Regular'; font-size:10px;" x="0" y="0"/><tspan style="font-family:'Montserrat-Regular'; font-size:10px;" x="6.16" y="0"/><tspan style="font-family:'Montserrat-Regular'; font-size:10px;" x="11.16" y="0"/><tspan style="font-family:'Montserrat-Regular'; font-size:10px;" x="18.25" y="0"/><tspan style="font-family:'Montserrat-Regular'; font-size:10px;" x="-6.32" y="12"/></text><text transform="matrix(1 0 0 1 191.8101 -309)"><tspan style="font-family:'Montserrat-Regular'; font-size:10px;" x="0" y="0"/><tspan style="font-family:'Montserrat-Regular'; font-size:10px;" x="6.83" y="0"/><tspan style="font-family:'Montserrat-Regular'; font-size:10px;" x="-5.645" y="12"/><tspan style="font-family:'Montserrat-Regular'; font-size:10px;" x="0.516" y="12"/><tspan style="font-family:'Montserrat-Regular'; font-size:10px;" x="7.465" y="12"/><tspan style="font-family:'Montserrat-Regular'; font-size:10px;" x="14.056" y="12"/><tspan style="font-family:'Montserrat-Regular'; font-size:10px;" x="53.725" y="12"/><tspan style="font-family:'Montserrat-Regular'; font-size:10px;" x="61.735" y="12"/></text><text transform="matrix(1 0 0 1 294.96 -309)"><tspan style="font-family:'Montserrat-Regular'; font-size:10px;" x="0" y="0"/><tspan style="font-family:'Montserrat-Regular'; font-size:10px;" x="14.46" y="0"/><tspan style="font-family:'Montserrat-Regular'; font-size:10px;" x="21.05" y="0"/></text><text transform="matrix(1 0 0 1 -198.3247 -213)"><tspan style="font-family:'Montserrat-Regular'; font-size:10px;" x="0" y="0"/><tspan style="font-family:'Montserrat-Regular'; font-size:10px;" x="37.36" y="0"/><tspan style="font-family:'Montserrat-Regular'; font-size:10px;" x="45.26" y="0"/></text><text transform="matrix(1 0 0 1 20.9951 -213)"><tspan style="font-family:'Montserrat-Regular'; font-size:10px;" x="0" y="0"/><tspan style="font-family:'Montserrat-Regular'; font-size:10px;" x="-1.81" y="12"/><tspan style="font-family:'Montserrat-Regular'; font-size:10px;" x="10.14" y="12"/><tspan style="font-family:'Montserrat-Regular'; font-size:10px;" x="18.15" y="12"/></text><text transform="matrix(1 0 0 1 105.4102 -213)"><tspan style="font-family:'Montserrat-Regular'; font-size:10px;" x="0" y="0"/><tspan style="font-family:'Montserrat-Regular'; font-size:10px;" x="-13.53" y="12"/></text><text transform="matrix(1 0 0 1 185.6206 -213)"><tspan style="font-family:'Montserrat-Regular'; font-size:10px;" x="0" y="0"/><tspan style="font-family:'Montserrat-Regular'; font-size:10px;" x="6.95" y="0"/></text><text transform="matrix(1 0 0 1 308.665 -213)"><tspan style="font-family:'Montserrat-Regular'; font-size:10px;" x="0" y="0"/><tspan style="font-family:'Montserrat-Regular'; font-size:10px;" x="-6.985" y="12"/></text><text transform="matrix(1 0 0 1 -196.8198 -117)"><tspan style="font-family:'Montserrat-Regular'; font-size:10px;" x="0" y="0"/><tspan style="font-family:'Montserrat-Regular'; font-size:10px;" x="6.83" y="0"/><tspan style="font-family:'Montserrat-Regular'; font-size:10px;" x="42.36" y="0"/><tspan style="font-family:'Montserrat-Regular'; font-size:10px;" x="48.95" y="0"/><tspan style="font-family:'Montserrat-Regular'; font-size:10px;" x="19.28" y="12"/></text><text style="font-family:'Montserrat-Regular'; font-size:10px;" transform="matrix(1 0 0 1 -87.8398 -117)"/><text transform="matrix(1 0 0 1 1.4502 -117)"><tspan style="font-family:'Montserrat-Regular'; font-size:10px;" x="0" y="0"/><tspan style="font-family:'Montserrat-Regular'; font-size:10px;" x="22.46" y="0"/><tspan style="font-family:'Montserrat-Regular'; font-size:10px;" x="29.41" y="0"/><tspan style="font-family:'Montserrat-Regular'; font-size:10px;" x="36" y="0"/><tspan style="font-family:'Montserrat-Regular'; font-size:10px;" x="17.735" y="12"/><tspan style="font-family:'Montserrat-Regular'; font-size:10px;" x="29.685" y="12"/><tspan style="font-family:'Montserrat-Regular'; font-size:10px;" x="37.695" y="12"/></text><text transform="matrix(1 0 0 1 101.5601 -117)"><tspan style="font-family:'Montserrat-Regular'; font-size:10px;" x="0" y="0"/><tspan style="font-family:'Montserrat-Regular'; font-size:10px;" x="20.14" y="0"/><tspan style="font-family:'Montserrat-Regular'; font-size:10px;" x="30.46" y="0"/></text><text transform="matrix(1 0 0 1 205.6802 -117)"><tspan style="font-family:'Montserrat-Regular'; font-size:10px;" x="0" y="0"/><tspan style="font-family:'Montserrat-Regular'; font-size:10px;" x="14.49" y="0"/><tspan style="font-family:'Montserrat-Regular'; font-size:10px;" x="22.15" y="0"/><tspan style="font-family:'Montserrat-Regular'; font-size:10px;" x="0.78" y="12"/></text><text transform="matrix(1 0 0 1 302.4751 -117)"><tspan style="font-family:'Montserrat-Regular'; font-size:10px;" x="0" y="0"/><tspan style="font-family:'Montserrat-Regular'; font-size:10px;" x="14.61" y="0"/><tspan style="font-family:'Montserrat-Regular'; font-size:10px;" x="21.76" y="0"/></text><text transform="matrix(1 0 0 1 -190.0098 -21)"><tspan style="font-family:'Montserrat-Regular'; font-size:10px;" x="0" y="0"/><tspan style="font-family:'Montserrat-Regular'; font-size:10px;" x="7.61" y="0"/></text><text transform="matrix(1 0 0 1 -91.7598 -21)"><tspan style="font-family:'Montserrat-Regular'; font-size:10px;" x="0" y="0"/><tspan style="font-family:'Montserrat-Regular'; font-size:10px;" x="10.22" y="12"/></text><text transform="matrix(1 0 0 1 1.2153 -21)"><tspan style="font-family:'Montserrat-Regular'; font-size:10px;" x="0" y="0"/><tspan style="font-family:'Montserrat-Regular'; font-size:10px;" x="17.05" y="0"/><tspan style="font-family:'Montserrat-Regular'; font-size:10px;" x="22.28" y="0"/><tspan style="font-family:'Montserrat-Regular'; font-size:10px;" x="30.18" y="0"/></text><text transform="matrix(1 0 0 1 102.0854 -21)"><tspan style="font-family:'Montserrat-Regular'; font-size:10px;" x="0" y="0"/><tspan style="font-family:'Montserrat-Regular'; font-size:10px;" x="8.375" y="12"/></text><text transform="matrix(1 0 0 1 206.0303 -21)"><tspan style="font-family:'Montserrat-Regular'; font-size:10px;" x="0" y="0"/><tspan style="font-family:'Montserrat-Regular'; font-size:10px;" x="-9.745" y="12"/><tspan style="font-family:'Montserrat-Regular'; font-size:10px;" x="1.045" y="12"/><tspan style="font-family:'Montserrat-Regular'; font-size:10px;" x="8.135" y="12"/></text><text style="font-family:'Montserrat-Regular'; font-size:10px;" transform="matrix(1 0 0 1 296.3901 -21)"/><text transform="matrix(1 0 0 1 -186.2197 75)"><tspan style="font-family:'Montserrat-Regular'; font-size:10px;" x="0" y="0"/><tspan style="font-family:'Montserrat-Regular'; font-size:10px;" x="0.275" y="12"/><tspan style="font-family:'Montserrat-Regular'; font-size:10px;" x="11.064" y="12"/><tspan style="font-family:'Montserrat-Regular'; font-size:10px;" x="18.155" y="12"/></text><text transform="matrix(1 0 0 1 -83.3647 75)"><tspan style="font-family:'Montserrat-Regular'; font-size:10px;" x="0" y="0"/><tspan style="font-family:'Montserrat-Regular'; font-size:10px;" x="25.28" y="0"/><tspan style="font-family:'Montserrat-Regular'; font-size:10px;" x="32.43" y="0"/><tspan style="font-family:'Montserrat-Regular'; font-size:10px;" x="6.385" y="12"/></text><text transform="matrix(1 0 0 1 17.415 75)"><tspan style="font-family:'Montserrat-Regular'; font-size:10px;" x="0" y="0"/><tspan style="font-family:'Montserrat-Regular'; font-size:10px;" x="-10.05" y="12"/><tspan style="font-family:'Montserrat-Regular'; font-size:10px;" x="0.74" y="12"/><tspan style="font-family:'Montserrat-Regular'; font-size:10px;" x="7.83" y="12"/></text><text style="font-family:'Montserrat-Regular'; font-size:10px;" transform="matrix(1 0 0 1 116.3203 75)"/><text transform="matrix(1 0 0 1 209.2949 75)"><tspan style="font-family:'Montserrat-Regular'; font-size:10px;" x="0" y="0"/><tspan style="font-family:'Montserrat-Regular'; font-size:10px;" x="-9.93" y="12"/><tspan style="font-family:'Montserrat-Regular'; font-size:10px;" x="0.86" y="12"/><tspan style="font-family:'Montserrat-Regular'; font-size:10px;" x="7.95" y="12"/></text><text transform="matrix(1 0 0 1 305.8599 75)"><tspan style="font-family:'Montserrat-Regular'; font-size:10px;" x="0" y="0"/><tspan style="font-family:'Montserrat-Regular'; font-size:10px;" x="-3.4" y="12"/></text></g></svg>